<svg width="14" height="22" viewBox="0 0 14 22" fill="none" xmlns="http://www.w3.org/2000/svg">
<path d="M4.88085 11.0047L13.111 2.77415C13.3376 2.54806 13.4623 2.24579 13.4623 1.92348C13.4623 1.60099 13.3376 1.29889 13.111 1.07246L12.3898 0.351642C12.1636 0.124846 11.8611 0 11.5388 0C11.2165 0 10.9144 0.124846 10.688 0.351642L0.888651 10.1508C0.661318 10.3779 0.53683 10.6814 0.537725 11.0041C0.53683 11.3282 0.661139 11.6314 0.888651 11.8587L10.6788 21.6484C10.9053 21.8752 11.2074 22 11.5299 22C11.8522 22 12.1543 21.8752 12.3809 21.6484L13.1019 20.9275C13.571 20.4584 13.571 19.6946 13.1019 19.2257L4.88085 11.0047Z" fill="black"/>
</svg>
