<!-- Created with Inkscape (http://www.inkscape.org/) -->
<svg width="116.38mm" height="26.122mm" version="1.1" viewBox="0 0 116.38 26.122" xmlns="http://www.w3.org/2000/svg">
 <g transform="translate(-6.3519 -12.427)">
  <g transform="translate(-5.3454 -104.77)">
   <g transform="matrix(.64367 0 0 .63713 11.697 117.2)">
    <path d="m140.16 40.901h-6.341v-28.504h6.341z"/>
    <path d="m13.762 18.242c-0.9803-0.0135-1.9526 0.1801-2.8541 0.5682-0.9016 0.3882-1.7125 0.9623-2.3805 1.6853-1.4254 1.4859-2.1381 3.5414-2.1381 6.1416 0 2.6003 0.7127 4.7053 2.1627 6.2159 0.67832 0.7317 1.501 1.3123 2.4152 1.7047 0.9142 0.3923 1.8997 0.5877 2.8932 0.5736 1.8677 0 3.3669-0.52 4.4973-1.5354 1.051-0.9235 1.8255-2.1242 2.2364-3.467l5.6033 2.0555c-0.7373 2.4021-2.1627 4.4823-4.2762 6.2158s-4.7922 2.6003-8.0608 2.6003c-3.9321 0-7.2253-1.362-9.8794-4.1109-2.6542-2.7488-3.9813-6.1663-3.9813-10.252 0-4.1356 1.3025-7.5531 3.9321-10.252 2.6296-2.6994 5.8736-4.0614 9.7811-4.0614 3.3423 0 6.0702 0.8667 8.1837 2.6002 2.0038 1.5869 3.4437 3.7851 4.1042 6.2655l-5.7262 2.1049c-0.3437-1.3711-1.0785-2.6108-2.1135-3.566-1.0788-0.9906-2.5288-1.4859-4.399-1.4859z"/>
    <path d="m36.718 32.778c0.7066 0.7204 1.5476 1.2929 2.4746 1.6843 0.9271 0.3914 1.9218 0.5941 2.927 0.5964 1.0051 0.0023 2.0008-0.1958 2.9296-0.583s1.7724-0.9557 2.4822-1.6729c1.4745-1.5107 2.2118-3.5909 2.2118-6.2902 0-2.6498-0.7373-4.7052-2.2118-6.1911-1.4427-1.4284-3.3842-2.2287-5.4067-2.2287s-3.964 0.8003-5.4067 2.2287c-1.4745 1.4859-2.2118 3.5413-2.2118 6.1911s0.7373 4.7548 2.2118 6.2654zm5.4067-20.455c4.1041 0 7.4956 1.3373 10.15 4.0118 2.6541 2.6746 4.0058 6.0673 4.0058 10.203 0 4.1356-1.3271 7.5284-4.0058 10.228-2.6788 2.6993-6.0457 4.0366-10.15 4.0366-4.055 0-7.4219-1.3373-10.101-4.0366-2.6788-2.6993-4.0058-6.1168-4.0058-10.228s1.327-7.5037 4.0058-10.203c2.6787-2.6993 6.021-4.0118 10.101-4.0118z"/>
    <path d="m72.82 12.496v6.5131c-0.6914-0.1069-1.3894-0.1649-2.0889-0.1734-4.8168 0-7.2007 2.3774-7.2007 7.6522v14.314h-6.3896v-28.405h6.2176v4.5566c0.6113-1.4342 1.6734-2.6263 3.0228-3.3927 1.4393-0.8412 3.0796-1.2694 4.7431-1.2382 0.5699-0.0049 1.1385 0.0532 1.6957 0.1733z"/>
    <path d="m81.545 23.615h14.229c-0.0226-0.8015-0.2063-1.59-0.54-2.3179s-0.8105-1.38-1.4014-1.9168c-1.2042-1.1392-2.9491-1.7088-5.2101-1.7088-2.0643 0-3.7355 0.5944-4.9889 1.783-1.2533 1.1887-1.966 2.5854-2.0889 4.1605zm14.991 6.9835 5.8242 1.7088c-0.835 2.4517-2.3836 4.4824-4.6692 6.092-2.2855 1.6097-5.0871 2.4022-8.4294 2.4022-4.1287 0-7.6185-1.3125-10.494-3.9128-2.8754-2.6003-4.3254-6.092-4.3254-10.475 0-4.1108 1.4009-7.5036 4.2025-10.129 2.6559-2.5816 6.2141-4.0051 9.904-3.9623 4.4482 0 7.9134 1.263 10.42 3.7642 2.5072 2.5012 3.7572 5.8939 3.7572 10.163 0 1.1392-0.049 1.8078-0.172 2.0307h-21.184c0.0266 0.9582 0.2551 1.8998 0.6703 2.7622 0.4152 0.8625 1.0077 1.6261 1.7381 2.2402 1.5307 1.3204 3.4906 2.0257 5.505 1.9812 3.7134 0.0148 6.1464-1.5453 7.2523-4.6657z"/>
    <path d="m110.57 40.901h-6.488v-40.901h6.537v16.468c0.688-1.1391 1.818-2.1049 3.391-2.8726 1.689-0.8031 3.54-1.2015 5.407-1.164 4.055 0 7.225 1.3126 9.511 3.9624 2.285 2.6497 3.416 6.0177 3.416 10.129 0 4.1852-1.205 7.6027-3.588 10.302-2.384 2.6993-5.579 4.0118-9.56 4.0118-3.982 0-6.857-1.4115-8.626-4.2594zm12.951-8.0979c1.401-1.5354 2.089-3.6156 2.089-6.2407 0-2.625-0.688-4.6804-2.065-6.1911-1.376-1.5106-3.194-2.2535-5.455-2.2535-2.188 0-3.982 0.7429-5.407 2.2535-1.425 1.5107-2.113 3.5661-2.113 6.1911 0 2.6251 0.712 4.6557 2.113 6.2159s3.219 2.3279 5.407 2.3279c2.236 0 4.03-0.7677 5.431-2.3031z"/>
    <path d="m170.14 40.876h-27.967v-5.5968l17.67-17.236h-17.965v-5.6463h28.213v5.4333l-17.891 17.385h17.94v5.6711z"/>
   </g>
   <g transform="matrix(.64367 0 0 .63713 121.64 136.87)" fill="#bfbfbf">
    <path d="m2.2603 8.6905c-0.42426-0.41419-0.75929-0.91071-0.9845-1.459-0.22521-0.54834-0.33584-1.1369-0.32509-1.7295-0.010929-0.59619 0.099509-1.1884 0.32464-1.7406 0.22512-0.55222 0.56023-1.053 0.98495-1.4718 0.4085-0.43341 0.90369-0.77605 1.4534-1.0056s1.1416-0.34096 1.7372-0.32691c1.2058 0.00126 2.3618 0.48051 3.2144 1.3326 0.85262 0.85206 1.3322 2.0073 1.3334 3.2123 0.01407 0.59523-0.09739 1.1868-0.32712 1.7361-0.22973 0.54935-0.5726 1.0442-1.0063 1.4525-0.42041 0.42267-0.9217 0.75638-1.474 0.98123-0.55227 0.22486-1.1442 0.33624-1.7405 0.32752-0.59301 0.01072-1.182-0.09982-1.7306-0.32488s-1.0455-0.55988-1.46-0.98387z" fill="#bfbfbf"/>
   </g>
  </g>
 </g>
</svg>
