<svg width="138" height="29" viewBox="0 0 138 29" fill="none" xmlns="http://www.w3.org/2000/svg">
<line y1="26.8514" x2="65" y2="26.8514" stroke="#C0C0C0" stroke-width="4.29723"/>
<path d="M13.8 0.799999C14.3067 0.799999 14.72 0.966666 15.04 1.3C15.36 1.63333 15.52 2.06667 15.52 2.6V13.48C15.52 13.9867 15.3733 14.3867 15.08 14.68C14.7867 14.9733 14.4 15.12 13.92 15.12C13.4533 15.12 13.0667 14.9733 12.76 14.68C12.4667 14.3867 12.32 13.9867 12.32 13.48V7.6L10.04 11.8C9.81333 12.2267 9.57333 12.5333 9.32 12.72C9.06667 12.8933 8.76667 12.98 8.42 12.98C8.07333 12.98 7.77333 12.8933 7.52 12.72C7.26667 12.5333 7.02667 12.2267 6.8 11.8L4.54 7.72V13.48C4.54 13.9733 4.38667 14.3733 4.08 14.68C3.78667 14.9733 3.4 15.12 2.92 15.12C2.45333 15.12 2.06667 14.9733 1.76 14.68C1.46667 14.3867 1.32 13.9867 1.32 13.48V2.6C1.32 2.06667 1.48 1.63333 1.8 1.3C2.13333 0.966666 2.55333 0.799999 3.06 0.799999C3.42 0.799999 3.74667 0.906666 4.04 1.12C4.33333 1.32 4.58 1.61333 4.78 2L8.46 8.92L12.12 2C12.5333 1.2 13.0933 0.799999 13.8 0.799999ZM22.4559 4.92C23.9759 4.92 25.0959 5.28667 25.8159 6.02C26.5493 6.74 26.9159 7.84 26.9159 9.32V13.5C26.9159 14.0067 26.7626 14.4067 26.4559 14.7C26.1626 14.98 25.7493 15.12 25.2159 15.12C24.7493 15.12 24.3626 14.9867 24.0559 14.72C23.7626 14.4533 23.6026 14.0933 23.5759 13.64C23.3893 14.12 23.0759 14.4933 22.6359 14.76C22.1959 15.0267 21.6693 15.16 21.0559 15.16C20.3759 15.16 19.7626 15.0267 19.2159 14.76C18.6693 14.48 18.2359 14.1 17.9159 13.62C17.6093 13.1267 17.4559 12.5733 17.4559 11.96C17.4559 11.2533 17.6359 10.6933 17.9959 10.28C18.3693 9.85333 18.9559 9.54667 19.7559 9.36C20.5559 9.17333 21.6359 9.08 22.9959 9.08H23.5359V8.84C23.5359 8.37333 23.4293 8.04 23.2159 7.84C23.0026 7.62667 22.6426 7.52 22.1359 7.52C21.5893 7.52 20.7893 7.70667 19.7359 8.08C19.4293 8.18667 19.1693 8.24 18.9559 8.24C18.6226 8.24 18.3559 8.12 18.1559 7.88C17.9559 7.64 17.8559 7.32667 17.8559 6.94C17.8559 6.64667 17.9159 6.40667 18.0359 6.22C18.1559 6.03333 18.3493 5.86667 18.6159 5.72C19.0826 5.48 19.6693 5.28667 20.3759 5.14C21.0826 4.99333 21.7759 4.92 22.4559 4.92ZM21.8959 12.78C22.3759 12.78 22.7693 12.6133 23.0759 12.28C23.3826 11.9333 23.5359 11.4933 23.5359 10.96V10.72H23.2159C22.3626 10.72 21.7559 10.8 21.3959 10.96C21.0359 11.1067 20.8559 11.36 20.8559 11.72C20.8559 12.0267 20.9493 12.28 21.1359 12.48C21.3359 12.68 21.5893 12.78 21.8959 12.78ZM30.6911 15.12C30.1844 15.12 29.7578 14.9867 29.4111 14.72C29.0778 14.44 28.9111 14.0267 28.9111 13.48V6.6C28.9111 6.05333 29.0778 5.64667 29.4111 5.38C29.7578 5.1 30.1844 4.96 30.6911 4.96C31.1978 4.96 31.6178 5.1 31.9511 5.38C32.2978 5.64667 32.4711 6.05333 32.4711 6.6V13.48C32.4711 14.0267 32.2978 14.44 31.9511 14.72C31.6178 14.9867 31.1978 15.12 30.6911 15.12ZM30.6911 3.56C30.0911 3.56 29.6111 3.40667 29.2511 3.1C28.9044 2.78 28.7311 2.36 28.7311 1.84C28.7311 1.32 28.9044 0.906666 29.2511 0.599999C29.6111 0.293333 30.0911 0.139999 30.6911 0.139999C31.2778 0.139999 31.7511 0.293333 32.1111 0.599999C32.4711 0.906666 32.6511 1.32 32.6511 1.84C32.6511 2.36 32.4711 2.78 32.1111 3.1C31.7644 3.40667 31.2911 3.56 30.6911 3.56ZM38.4161 15.16C37.5228 15.16 36.7694 15.0933 36.1561 14.96C35.5428 14.8267 35.0028 14.6133 34.5361 14.32C34.3494 14.2267 34.2028 14.0667 34.0961 13.84C33.9894 13.6133 33.9361 13.36 33.9361 13.08C33.9361 12.72 34.0294 12.4267 34.2161 12.2C34.4161 11.96 34.6628 11.84 34.9561 11.84C35.1561 11.84 35.3428 11.8667 35.5161 11.92C35.6894 11.96 35.9028 12.0333 36.1561 12.14C36.5828 12.2867 36.9561 12.4 37.2761 12.48C37.6094 12.56 38.0294 12.6 38.5361 12.6C38.8961 12.6 39.1761 12.5533 39.3761 12.46C39.5894 12.3533 39.6961 12.2067 39.6961 12.02C39.6961 11.8733 39.6428 11.76 39.5361 11.68C39.4428 11.6 39.2561 11.5267 38.9761 11.46C38.6961 11.38 38.2228 11.2733 37.5561 11.14C36.3694 10.9133 35.5094 10.5733 34.9761 10.12C34.4561 9.65333 34.1961 9 34.1961 8.16C34.1961 7.54667 34.3828 6.99333 34.7561 6.5C35.1428 6.00667 35.6694 5.62 36.3361 5.34C37.0028 5.06 37.7494 4.92 38.5761 4.92C39.1761 4.92 39.7561 4.99333 40.3161 5.14C40.8894 5.28667 41.3961 5.49333 41.8361 5.76C42.2494 6 42.4561 6.38667 42.4561 6.92C42.4561 7.29333 42.3561 7.60667 42.1561 7.86C41.9561 8.11333 41.7094 8.24 41.4161 8.24C41.0694 8.24 40.6561 8.12667 40.1761 7.9C39.8561 7.75333 39.5694 7.64667 39.3161 7.58C39.0761 7.5 38.7894 7.46 38.4561 7.46C38.1228 7.46 37.8628 7.51333 37.6761 7.62C37.4894 7.71333 37.3961 7.85333 37.3961 8.04C37.3961 8.25333 37.5228 8.42 37.7761 8.54C38.0428 8.66 38.5628 8.79333 39.3361 8.94C40.6294 9.16667 41.5428 9.51333 42.0761 9.98C42.6094 10.4333 42.8761 11.0933 42.8761 11.96C42.8761 12.9333 42.4694 13.7133 41.6561 14.3C40.8561 14.8733 39.7761 15.16 38.4161 15.16ZM60.4234 1.76C60.5701 1.44 60.7768 1.2 61.0434 1.04C61.3101 0.879999 61.6034 0.799999 61.9234 0.799999C62.4034 0.799999 62.8368 0.953333 63.2234 1.26C63.6101 1.56667 63.8034 1.95333 63.8034 2.42C63.8034 2.64667 63.7434 2.88 63.6234 3.12L58.3434 14.02C58.1701 14.38 57.9101 14.66 57.5634 14.86C57.2168 15.0467 56.8434 15.14 56.4434 15.14C56.0434 15.14 55.6701 15.0467 55.3234 14.86C54.9768 14.66 54.7168 14.38 54.5434 14.02L49.2634 3.12C49.1568 2.90667 49.1034 2.67333 49.1034 2.42C49.1034 1.96667 49.3034 1.58667 49.7034 1.28C50.1034 0.959999 50.5501 0.799999 51.0434 0.799999C51.3634 0.799999 51.6568 0.879999 51.9234 1.04C52.2034 1.2 52.4168 1.44 52.5634 1.76L56.5034 10.28L60.4234 1.76ZM71.7158 11.84C72.0224 11.84 72.2691 11.96 72.4558 12.2C72.6558 12.44 72.7558 12.7533 72.7558 13.14C72.7558 13.6733 72.4958 14.08 71.9758 14.36C71.5224 14.5867 70.9824 14.78 70.3558 14.94C69.7424 15.0867 69.1758 15.16 68.6558 15.16C67.5624 15.16 66.6091 14.9533 65.7958 14.54C64.9824 14.1267 64.3558 13.5333 63.9158 12.76C63.4758 11.9867 63.2558 11.08 63.2558 10.04C63.2558 9.05333 63.4624 8.17333 63.8758 7.4C64.3024 6.61333 64.8891 6.00667 65.6358 5.58C66.3958 5.14 67.2491 4.92 68.1958 4.92C69.1158 4.92 69.9224 5.12 70.6158 5.52C71.3091 5.92 71.8424 6.48667 72.2158 7.22C72.6024 7.95333 72.7958 8.81333 72.7958 9.8C72.7958 10.1067 72.7224 10.3467 72.5758 10.52C72.4424 10.68 72.2424 10.76 71.9758 10.76H66.6958C66.7891 11.4 66.9958 11.86 67.3158 12.14C67.6358 12.42 68.1091 12.56 68.7358 12.56C69.0691 12.56 69.3758 12.5267 69.6558 12.46C69.9358 12.38 70.2491 12.2733 70.5958 12.14C70.7958 12.06 70.9891 11.9933 71.1758 11.94C71.3758 11.8733 71.5558 11.84 71.7158 11.84ZM68.2958 7.32C67.8291 7.32 67.4558 7.47333 67.1758 7.78C66.8958 8.07333 66.7291 8.50667 66.6758 9.08H69.8158C69.7358 7.90667 69.2291 7.32 68.2958 7.32ZM81.0389 4.92C82.2122 4.92 83.0856 5.27333 83.6589 5.98C84.2322 6.67333 84.5189 7.73333 84.5189 9.16V13.48C84.5189 13.9867 84.3589 14.3867 84.0389 14.68C83.7189 14.9733 83.2856 15.12 82.7389 15.12C82.1922 15.12 81.7589 14.9733 81.4389 14.68C81.1189 14.3867 80.9589 13.9867 80.9589 13.48V9.32C80.9589 8.73333 80.8522 8.30667 80.6389 8.04C80.4389 7.77333 80.1322 7.64 79.7189 7.64C79.1856 7.64 78.7589 7.81333 78.4389 8.16C78.1322 8.49333 77.9789 8.94667 77.9789 9.52V13.48C77.9789 13.9867 77.8189 14.3867 77.4989 14.68C77.1789 14.9733 76.7456 15.12 76.1989 15.12C75.6522 15.12 75.2189 14.9733 74.8989 14.68C74.5789 14.3867 74.4189 13.9867 74.4189 13.48V6.56C74.4189 6.09333 74.5856 5.71333 74.9189 5.42C75.2522 5.11333 75.6856 4.96 76.2189 4.96C76.7256 4.96 77.1256 5.1 77.4189 5.38C77.7256 5.66 77.8789 6.02667 77.8789 6.48C78.2256 5.97333 78.6722 5.58667 79.2189 5.32C79.7656 5.05333 80.3722 4.92 81.0389 4.92ZM95.1283 0.799999C95.6616 0.799999 96.0949 0.953333 96.4283 1.26C96.7749 1.55333 96.9483 1.93333 96.9483 2.4V13.48C96.9483 13.9867 96.7883 14.3867 96.4683 14.68C96.1483 14.9733 95.7216 15.12 95.1883 15.12C94.6949 15.12 94.2883 14.9933 93.9683 14.74C93.6616 14.4733 93.4883 14.1133 93.4483 13.66C93.1683 14.1267 92.7549 14.4933 92.2083 14.76C91.6749 15.0267 91.0816 15.16 90.4283 15.16C89.5883 15.16 88.8349 14.9467 88.1683 14.52C87.5149 14.08 87.0016 13.4667 86.6283 12.68C86.2549 11.8933 86.0683 10.9933 86.0683 9.98C86.0683 8.96667 86.2483 8.08 86.6083 7.32C86.9816 6.54667 87.4949 5.95333 88.1483 5.54C88.8149 5.12667 89.5749 4.92 90.4283 4.92C91.0549 4.92 91.6283 5.04667 92.1483 5.3C92.6816 5.55333 93.0949 5.89333 93.3883 6.32V2.34C93.3883 1.87333 93.5416 1.5 93.8483 1.22C94.1683 0.939999 94.5949 0.799999 95.1283 0.799999ZM91.5083 12.5C92.1349 12.5 92.6149 12.2867 92.9483 11.86C93.2816 11.4333 93.4483 10.82 93.4483 10.02C93.4483 9.23333 93.2816 8.63333 92.9483 8.22C92.6149 7.79333 92.1349 7.58 91.5083 7.58C90.8949 7.58 90.4216 7.78667 90.0883 8.2C89.7549 8.61333 89.5883 9.20667 89.5883 9.98C89.5883 10.78 89.7549 11.4 90.0883 11.84C90.4349 12.28 90.9083 12.5 91.5083 12.5ZM100.808 15.12C100.302 15.12 99.8749 14.9867 99.5283 14.72C99.1949 14.44 99.0283 14.0267 99.0283 13.48V6.6C99.0283 6.05333 99.1949 5.64667 99.5283 5.38C99.8749 5.1 100.302 4.96 100.808 4.96C101.315 4.96 101.735 5.1 102.068 5.38C102.415 5.64667 102.588 6.05333 102.588 6.6V13.48C102.588 14.0267 102.415 14.44 102.068 14.72C101.735 14.9867 101.315 15.12 100.808 15.12ZM100.808 3.56C100.208 3.56 99.7283 3.40667 99.3683 3.1C99.0216 2.78 98.8483 2.36 98.8483 1.84C98.8483 1.32 99.0216 0.906666 99.3683 0.599999C99.7283 0.293333 100.208 0.139999 100.808 0.139999C101.395 0.139999 101.868 0.293333 102.228 0.599999C102.588 0.906666 102.768 1.32 102.768 1.84C102.768 2.36 102.588 2.78 102.228 3.1C101.882 3.40667 101.408 3.56 100.808 3.56ZM113.253 0.799999C113.787 0.799999 114.22 0.953333 114.553 1.26C114.9 1.55333 115.073 1.93333 115.073 2.4V13.48C115.073 13.9867 114.913 14.3867 114.593 14.68C114.273 14.9733 113.847 15.12 113.313 15.12C112.82 15.12 112.413 14.9933 112.093 14.74C111.787 14.4733 111.613 14.1133 111.573 13.66C111.293 14.1267 110.88 14.4933 110.333 14.76C109.8 15.0267 109.207 15.16 108.553 15.16C107.713 15.16 106.96 14.9467 106.293 14.52C105.64 14.08 105.127 13.4667 104.753 12.68C104.38 11.8933 104.193 10.9933 104.193 9.98C104.193 8.96667 104.373 8.08 104.733 7.32C105.107 6.54667 105.62 5.95333 106.273 5.54C106.94 5.12667 107.7 4.92 108.553 4.92C109.18 4.92 109.753 5.04667 110.273 5.3C110.807 5.55333 111.22 5.89333 111.513 6.32V2.34C111.513 1.87333 111.667 1.5 111.973 1.22C112.293 0.939999 112.72 0.799999 113.253 0.799999ZM109.633 12.5C110.26 12.5 110.74 12.2867 111.073 11.86C111.407 11.4333 111.573 10.82 111.573 10.02C111.573 9.23333 111.407 8.63333 111.073 8.22C110.74 7.79333 110.26 7.58 109.633 7.58C109.02 7.58 108.547 7.78667 108.213 8.2C107.88 8.61333 107.713 9.20667 107.713 9.98C107.713 10.78 107.88 11.4 108.213 11.84C108.56 12.28 109.033 12.5 109.633 12.5ZM122.113 15.16C121.033 15.16 120.08 14.9533 119.253 14.54C118.44 14.1133 117.807 13.5133 117.353 12.74C116.913 11.9667 116.693 11.06 116.693 10.02C116.693 8.98 116.913 8.08 117.353 7.32C117.807 6.54667 118.44 5.95333 119.253 5.54C120.067 5.12667 121.02 4.92 122.113 4.92C123.207 4.92 124.16 5.12667 124.973 5.54C125.787 5.95333 126.413 6.54667 126.853 7.32C127.307 8.08 127.533 8.98 127.533 10.02C127.533 11.06 127.307 11.9667 126.853 12.74C126.413 13.5133 125.787 14.1133 124.973 14.54C124.16 14.9533 123.207 15.16 122.113 15.16ZM122.113 12.5C123.38 12.5 124.013 11.6733 124.013 10.02C124.013 8.36667 123.38 7.54 122.113 7.54C120.847 7.54 120.213 8.36667 120.213 10.02C120.213 11.6733 120.847 12.5 122.113 12.5ZM133.025 15.16C132.132 15.16 131.379 15.0933 130.765 14.96C130.152 14.8267 129.612 14.6133 129.145 14.32C128.959 14.2267 128.812 14.0667 128.705 13.84C128.599 13.6133 128.545 13.36 128.545 13.08C128.545 12.72 128.639 12.4267 128.825 12.2C129.025 11.96 129.272 11.84 129.565 11.84C129.765 11.84 129.952 11.8667 130.125 11.92C130.299 11.96 130.512 12.0333 130.765 12.14C131.192 12.2867 131.565 12.4 131.885 12.48C132.219 12.56 132.639 12.6 133.145 12.6C133.505 12.6 133.785 12.5533 133.985 12.46C134.199 12.3533 134.305 12.2067 134.305 12.02C134.305 11.8733 134.252 11.76 134.145 11.68C134.052 11.6 133.865 11.5267 133.585 11.46C133.305 11.38 132.832 11.2733 132.165 11.14C130.979 10.9133 130.119 10.5733 129.585 10.12C129.065 9.65333 128.805 9 128.805 8.16C128.805 7.54667 128.992 6.99333 129.365 6.5C129.752 6.00667 130.279 5.62 130.945 5.34C131.612 5.06 132.359 4.92 133.185 4.92C133.785 4.92 134.365 4.99333 134.925 5.14C135.499 5.28667 136.005 5.49333 136.445 5.76C136.859 6 137.065 6.38667 137.065 6.92C137.065 7.29333 136.965 7.60667 136.765 7.86C136.565 8.11333 136.319 8.24 136.025 8.24C135.679 8.24 135.265 8.12667 134.785 7.9C134.465 7.75333 134.179 7.64667 133.925 7.58C133.685 7.5 133.399 7.46 133.065 7.46C132.732 7.46 132.472 7.51333 132.285 7.62C132.099 7.71333 132.005 7.85333 132.005 8.04C132.005 8.25333 132.132 8.42 132.385 8.54C132.652 8.66 133.172 8.79333 133.945 8.94C135.239 9.16667 136.152 9.51333 136.685 9.98C137.219 10.4333 137.485 11.0933 137.485 11.96C137.485 12.9333 137.079 13.7133 136.265 14.3C135.465 14.8733 134.385 15.16 133.025 15.16Z" fill="black"/>
</svg>
