<svg width="16" height="18" viewBox="0 0 16 18" fill="none" xmlns="http://www.w3.org/2000/svg">
<path d="M7.87173 8.67069C9.06293 8.67069 10.0943 8.24346 10.9372 7.40053C11.7798 6.55774 12.2072 5.52654 12.2072 4.33521C12.2072 3.14429 11.78 2.11295 10.9371 1.26988C10.0941 0.427231 9.06279 0 7.87173 0C6.6804 0 5.6492 0.427231 4.80641 1.27002C3.96362 2.11281 3.53625 3.14415 3.53625 4.33521C3.53625 5.52654 3.96362 6.55788 4.80641 7.40067C5.64948 8.24332 6.68082 8.67069 7.87173 8.67069ZM5.55238 2.01585C6.19907 1.36917 6.95767 1.05483 7.87173 1.05483C8.78566 1.05483 9.5444 1.36917 10.1912 2.01585C10.8379 2.66267 11.1524 3.42142 11.1524 4.33521C11.1524 5.24927 10.8379 6.00787 10.1912 6.6547C9.5444 7.30152 8.78566 7.61586 7.87173 7.61586C6.95795 7.61586 6.19934 7.30138 5.55238 6.6547C4.90556 6.00801 4.59108 5.24927 4.59108 4.33521C4.59108 3.42142 4.90556 2.66267 5.55238 2.01585Z" fill="black"/>
<path d="M15.4577 13.8412C15.4334 13.4904 15.3842 13.1078 15.3118 12.7038C15.2388 12.2968 15.1447 11.912 15.0321 11.5603C14.9156 11.1968 14.7576 10.8378 14.5619 10.4938C14.359 10.1367 14.1206 9.82581 13.8531 9.56996C13.5734 9.30231 13.2309 9.08711 12.8348 8.93015C12.4401 8.774 12.0027 8.6949 11.5349 8.6949C11.3511 8.6949 11.1734 8.77029 10.8302 8.99373C10.619 9.13147 10.372 9.29077 10.0962 9.46697C9.8604 9.6172 9.54097 9.75797 9.14643 9.88541C8.76149 10.01 8.37065 10.0731 7.98476 10.0731C7.59914 10.0731 7.2083 10.01 6.82309 9.88541C6.42896 9.7581 6.10939 9.61734 5.87401 9.4671C5.60086 9.29256 5.35367 9.13326 5.1393 8.99359C4.79639 8.77016 4.61868 8.69476 4.43494 8.69476C3.96692 8.69476 3.52966 8.774 3.13512 8.93028C2.73933 9.08698 2.3967 9.30217 2.11668 9.5701C1.84917 9.82608 1.61076 10.1369 1.40807 10.4938C1.21265 10.8378 1.05444 11.1966 0.937988 11.5604C0.825516 11.9121 0.731445 12.2968 0.658386 12.7038C0.585876 13.1073 0.53685 13.49 0.512543 13.8416C0.488647 14.1853 0.476562 14.5431 0.476562 14.9045C0.476562 15.8441 0.775253 16.6048 1.36426 17.1658C1.94598 17.7194 2.71558 18.0001 3.65175 18.0001H12.3189C13.2548 18.0001 14.0244 17.7194 14.6062 17.1658C15.1954 16.6052 15.4941 15.8443 15.4941 14.9044C15.4939 14.5417 15.4817 14.1839 15.4577 13.8412ZM13.8789 16.4015C13.4945 16.7674 12.9842 16.9452 12.3187 16.9452H3.65175C2.98611 16.9452 2.4758 16.7674 2.09155 16.4017C1.71458 16.0428 1.53139 15.553 1.53139 14.9045C1.53139 14.5672 1.54251 14.2342 1.56476 13.9145C1.58646 13.6009 1.63081 13.2563 1.69659 12.8902C1.76155 12.5286 1.84422 12.1892 1.94255 11.882C2.0369 11.5875 2.16557 11.2958 2.32515 11.0148C2.47745 10.747 2.65268 10.5173 2.84604 10.3321C3.0269 10.159 3.25487 10.0172 3.52348 9.91095C3.77191 9.81262 4.0511 9.75879 4.35419 9.75069C4.39113 9.77033 4.45691 9.80782 4.56348 9.87731C4.78032 10.0186 5.03026 10.1798 5.30657 10.3563C5.61803 10.5549 6.0193 10.7342 6.49872 10.889C6.98885 11.0475 7.48873 11.128 7.9849 11.128C8.48107 11.128 8.98108 11.0475 9.47093 10.8891C9.95076 10.7341 10.3519 10.5549 10.6638 10.356C10.9465 10.1753 11.1895 10.0188 11.4063 9.87731C11.5129 9.80795 11.5787 9.77033 11.6156 9.75069C11.9188 9.75879 12.198 9.81262 12.4466 9.91095C12.7151 10.0172 12.943 10.1591 13.1239 10.3321C13.3172 10.5171 13.4925 10.7469 13.6448 11.0149C13.8045 11.2958 13.9333 11.5876 14.0275 11.8819C14.126 12.1895 14.2088 12.5287 14.2736 12.89C14.3393 13.2568 14.3837 13.6015 14.4054 13.9146V13.9149C14.4278 14.2334 14.4391 14.5663 14.4392 14.9045C14.4391 15.5531 14.2559 16.0428 13.8789 16.4015Z" fill="black"/>
</svg>
