<svg width="158" height="32" viewBox="0 0 158 32" fill="none" xmlns="http://www.w3.org/2000/svg">
<path d="M4.09224 8.08481C3.38546 8.08481 2.7741 7.93286 2.25815 7.62894C1.74221 7.31796 1.34288 6.87622 1.06017 6.30374C0.784522 5.72418 0.646701 5.04214 0.646701 4.25762C0.646701 3.48016 0.784522 2.80519 1.06017 2.2327C1.34288 1.65314 1.74221 1.21141 2.25815 0.907493C2.7741 0.596511 3.38546 0.44102 4.09224 0.44102C4.56578 0.44102 5.01105 0.518766 5.42805 0.674257C5.85211 0.82268 6.21964 1.03825 6.53062 1.32096C6.6437 1.42697 6.70025 1.55066 6.70025 1.69202C6.70025 1.79096 6.67197 1.87931 6.61543 1.95706C6.55889 2.02773 6.49175 2.06307 6.414 2.06307C6.32919 2.06307 6.22671 2.0242 6.10655 1.94646C5.7461 1.66374 5.41745 1.46585 5.1206 1.35276C4.83082 1.23968 4.4951 1.18314 4.11344 1.18314C3.29358 1.18314 2.66102 1.45171 2.21575 1.98886C1.77754 2.51894 1.55844 3.2752 1.55844 4.25762C1.55844 5.2471 1.77754 6.01042 2.21575 6.54757C2.66102 7.07766 3.29358 7.3427 4.11344 7.3427C4.48803 7.3427 4.82375 7.28616 5.1206 7.17307C5.41745 7.05999 5.7461 6.86209 6.10655 6.57938C6.22671 6.50163 6.32919 6.46276 6.414 6.46276C6.49175 6.46276 6.55889 6.4981 6.61543 6.56878C6.67197 6.63945 6.70025 6.7278 6.70025 6.83382C6.70025 6.97517 6.6437 7.09886 6.53062 7.20488C6.21964 7.48759 5.85211 7.70669 5.42805 7.86218C5.01105 8.0106 4.56578 8.08481 4.09224 8.08481ZM10.5249 2.73098C10.8217 2.70977 10.9701 2.82993 10.9701 3.09143C10.9701 3.20452 10.9383 3.2964 10.8747 3.36708C10.8111 3.43069 10.7016 3.46956 10.5461 3.4837L10.228 3.5155C9.75449 3.55791 9.4011 3.72753 9.16786 4.02438C8.94169 4.31416 8.82861 4.65694 8.82861 5.05274V7.62894C8.82861 7.7703 8.78974 7.87631 8.71199 7.94699C8.63425 8.01767 8.53176 8.05301 8.40454 8.05301C8.27732 8.05301 8.17131 8.01767 8.08649 7.94699C8.00875 7.86925 7.96988 7.76323 7.96988 7.62894V3.15504C7.96988 3.02076 8.01228 2.91827 8.0971 2.8476C8.18191 2.76985 8.28439 2.73098 8.40454 2.73098C8.51763 2.73098 8.61304 2.76985 8.69079 2.8476C8.76853 2.91827 8.80741 3.01722 8.80741 3.14444V3.73813C8.95583 3.42715 9.16433 3.19038 9.4329 3.02782C9.70855 2.86527 10.0231 2.76985 10.3765 2.74158L10.5249 2.73098ZM15.6007 6.80201C15.6784 6.80201 15.7456 6.83382 15.8021 6.89743C15.8586 6.96104 15.8869 7.04232 15.8869 7.14127C15.8869 7.31796 15.7632 7.48052 15.5159 7.62894C15.2614 7.77737 14.9928 7.89045 14.7101 7.9682C14.4274 8.03887 14.1518 8.07421 13.8832 8.07421C13.0845 8.07421 12.452 7.83744 11.9855 7.3639C11.5261 6.89036 11.2964 6.23659 11.2964 5.40259C11.2964 4.87251 11.3989 4.40604 11.6038 4.00318C11.8088 3.59325 12.0951 3.2752 12.4626 3.04903C12.8372 2.82286 13.2612 2.70977 13.7348 2.70977C14.4062 2.70977 14.9398 2.92888 15.3356 3.36708C15.7314 3.80528 15.9293 4.39897 15.9293 5.14815C15.9293 5.28951 15.901 5.39199 15.8445 5.4556C15.788 5.51921 15.6961 5.55102 15.5689 5.55102H12.1551C12.2187 6.76667 12.7948 7.3745 13.8832 7.3745C14.1588 7.3745 14.3956 7.33916 14.5935 7.26849C14.7914 7.19074 15.0034 7.08826 15.2296 6.96104C15.4134 6.85502 15.5371 6.80201 15.6007 6.80201ZM13.7454 3.37768C13.293 3.37768 12.929 3.51903 12.6534 3.80174C12.3848 4.08446 12.2258 4.48378 12.1763 4.99973H15.1766C15.1625 4.47672 15.0317 4.07739 14.7843 3.80174C14.537 3.51903 14.1906 3.37768 13.7454 3.37768ZM19.3043 2.70977C20.5977 2.70977 21.2444 3.38828 21.2444 4.74529V7.62894C21.2444 7.75616 21.2055 7.85864 21.1278 7.93639C21.0571 8.01414 20.9581 8.05301 20.8309 8.05301C20.7037 8.05301 20.6012 8.01414 20.5235 7.93639C20.4457 7.85864 20.4069 7.75616 20.4069 7.62894V7.12006C20.2726 7.42398 20.0676 7.66075 19.792 7.83037C19.5163 7.99293 19.1983 8.07421 18.8378 8.07421C18.5056 8.07421 18.1982 8.00707 17.9155 7.87278C17.6398 7.73849 17.4207 7.5512 17.2582 7.31089C17.0956 7.07059 17.0143 6.80555 17.0143 6.51577C17.0143 6.12704 17.1133 5.82666 17.3112 5.61463C17.5091 5.39553 17.8342 5.24004 18.2865 5.14815C18.7389 5.04921 19.3679 4.99973 20.1736 4.99973H20.4069V4.64988C20.4069 4.22581 20.3185 3.91483 20.1418 3.71693C19.9722 3.51903 19.693 3.42009 19.3043 3.42009C18.8237 3.42009 18.336 3.55084 17.8413 3.81235C17.6504 3.9325 17.5161 3.99257 17.4384 3.99257C17.3536 3.99257 17.2829 3.96077 17.2264 3.89716C17.1698 3.83355 17.1415 3.75227 17.1415 3.65332C17.1415 3.55437 17.1698 3.46956 17.2264 3.39888C17.29 3.32114 17.3889 3.24339 17.5232 3.16565C17.7706 3.02429 18.0498 2.91474 18.3607 2.83699C18.6788 2.75218 18.9933 2.70977 19.3043 2.70977ZM18.9544 7.39571C19.3785 7.39571 19.7248 7.25435 19.9934 6.97164C20.269 6.68186 20.4069 6.3108 20.4069 5.85847V5.55102H20.216C19.5941 5.55102 19.1205 5.57929 18.7954 5.63583C18.4703 5.68531 18.2371 5.77365 18.0957 5.90087C17.9614 6.02102 17.8943 6.20125 17.8943 6.44156C17.8943 6.7172 17.9932 6.9469 18.1911 7.13066C18.3961 7.30736 18.6505 7.39571 18.9544 7.39571ZM25.2017 7.3745C25.4491 7.39571 25.5728 7.50879 25.5728 7.71376C25.5728 7.83391 25.5268 7.92579 25.4349 7.9894C25.3501 8.04594 25.2194 8.06714 25.0427 8.05301L24.7564 8.0318C24.191 7.9894 23.774 7.81977 23.5054 7.52293C23.2369 7.22608 23.1026 6.77728 23.1026 6.17652V3.5155H22.3923C22.2721 3.5155 22.1767 3.48723 22.106 3.43069C22.0424 3.36708 22.0106 3.2858 22.0106 3.18685C22.0106 3.08083 22.0424 2.99602 22.106 2.93241C22.1767 2.8688 22.2721 2.83699 22.3923 2.83699H23.1026V1.63901C23.1026 1.50472 23.1415 1.40224 23.2192 1.33156C23.2969 1.25381 23.403 1.21494 23.5372 1.21494C23.6645 1.21494 23.7669 1.25381 23.8447 1.33156C23.9224 1.40224 23.9613 1.50472 23.9613 1.63901V2.83699H25.1381C25.2512 2.83699 25.3395 2.8688 25.4031 2.93241C25.4738 2.99602 25.5092 3.08083 25.5092 3.18685C25.5092 3.2858 25.4738 3.36708 25.4031 3.43069C25.3395 3.48723 25.2512 3.5155 25.1381 3.5155H23.9613V6.21892C23.9613 6.60765 24.0391 6.89036 24.1945 7.06705C24.3571 7.23668 24.5974 7.3321 24.9155 7.3533L25.2017 7.3745ZM30.4161 6.80201C30.4938 6.80201 30.561 6.83382 30.6175 6.89743C30.674 6.96104 30.7023 7.04232 30.7023 7.14127C30.7023 7.31796 30.5786 7.48052 30.3312 7.62894C30.0768 7.77737 29.8082 7.89045 29.5255 7.9682C29.2428 8.03887 28.9672 8.07421 28.6986 8.07421C27.8999 8.07421 27.2674 7.83744 26.8009 7.3639C26.3415 6.89036 26.1118 6.23659 26.1118 5.40259C26.1118 4.87251 26.2143 4.40604 26.4192 4.00318C26.6242 3.59325 26.9104 3.2752 27.278 3.04903C27.6526 2.82286 28.0766 2.70977 28.5502 2.70977C29.2216 2.70977 29.7552 2.92888 30.151 3.36708C30.5468 3.80528 30.7447 4.39897 30.7447 5.14815C30.7447 5.28951 30.7164 5.39199 30.6599 5.4556C30.6034 5.51921 30.5115 5.55102 30.3843 5.55102H26.9705C27.0341 6.76667 27.6102 7.3745 28.6986 7.3745C28.9742 7.3745 29.211 7.33916 29.4089 7.26849C29.6068 7.19074 29.8188 7.08826 30.045 6.96104C30.2288 6.85502 30.3525 6.80201 30.4161 6.80201ZM28.5608 3.37768C28.1084 3.37768 27.7444 3.51903 27.4688 3.80174C27.2002 4.08446 27.0412 4.48378 26.9917 4.99973H29.992C29.9779 4.47672 29.8471 4.07739 29.5997 3.80174C29.3524 3.51903 29.006 3.37768 28.5608 3.37768ZM36.1552 0.472825C36.2895 0.472825 36.3955 0.511698 36.4733 0.589443C36.551 0.667189 36.5899 0.766138 36.5899 0.88629V7.62894C36.5899 7.75616 36.551 7.85864 36.4733 7.93639C36.3955 8.01414 36.2895 8.05301 36.1552 8.05301C36.0209 8.05301 35.9149 8.01414 35.8372 7.93639C35.7665 7.85864 35.7311 7.75616 35.7311 7.62894V7.05645C35.5756 7.38157 35.3459 7.63248 35.042 7.80917C34.7452 7.98586 34.3953 8.07421 33.9925 8.07421C33.5401 8.07421 33.1408 7.96113 32.7945 7.73496C32.4482 7.50879 32.1796 7.19427 31.9888 6.79141C31.7979 6.38148 31.7025 5.90794 31.7025 5.37079C31.7025 4.84071 31.7979 4.37423 31.9888 3.97137C32.1796 3.56851 32.4482 3.25753 32.7945 3.03843C33.1408 2.81932 33.5401 2.70977 33.9925 2.70977C34.3953 2.70977 34.7452 2.79812 35.042 2.97482C35.3459 3.15151 35.5756 3.40242 35.7311 3.72753V0.88629C35.7311 0.75907 35.7665 0.660121 35.8372 0.589443C35.9149 0.511698 36.0209 0.472825 36.1552 0.472825ZM34.1621 7.3639C34.6639 7.3639 35.0491 7.19427 35.3177 6.85502C35.5933 6.5087 35.7311 6.02102 35.7311 5.39199C35.7311 4.76296 35.5933 4.27882 35.3177 3.93957C35.0491 3.60031 34.6639 3.43069 34.1621 3.43069C33.6603 3.43069 33.268 3.60031 32.9853 3.93957C32.7097 4.27882 32.5718 4.75589 32.5718 5.37079C32.5718 5.99982 32.7097 6.49103 32.9853 6.84442C33.268 7.19074 33.6603 7.3639 34.1621 7.3639ZM43.5111 2.70977C43.9634 2.70977 44.3628 2.81932 44.7091 3.03843C45.0554 3.25753 45.324 3.56851 45.5148 3.97137C45.7056 4.37423 45.8011 4.84071 45.8011 5.37079C45.8011 5.90794 45.7056 6.38148 45.5148 6.79141C45.324 7.19427 45.0554 7.50879 44.7091 7.73496C44.3628 7.96113 43.9634 8.07421 43.5111 8.07421C43.1082 8.07421 42.7548 7.98586 42.4509 7.80917C42.1541 7.63248 41.9279 7.38157 41.7724 7.05645V7.62894C41.7724 7.75616 41.7335 7.85864 41.6558 7.93639C41.5851 8.01414 41.4826 8.05301 41.3484 8.05301C41.2141 8.05301 41.1081 8.01414 41.0303 7.93639C40.9526 7.85864 40.9137 7.75616 40.9137 7.62894V0.88629C40.9137 0.766138 40.9526 0.667189 41.0303 0.589443C41.1081 0.511698 41.2141 0.472825 41.3484 0.472825C41.4826 0.472825 41.5851 0.511698 41.6558 0.589443C41.7335 0.660121 41.7724 0.75907 41.7724 0.88629V3.72753C41.9279 3.40242 42.1541 3.15151 42.4509 2.97482C42.7548 2.79812 43.1082 2.70977 43.5111 2.70977ZM43.3415 7.3639C43.8433 7.3639 44.232 7.19074 44.5076 6.84442C44.7833 6.49103 44.9211 5.99982 44.9211 5.37079C44.9211 4.75589 44.7833 4.27882 44.5076 3.93957C44.232 3.60031 43.8433 3.43069 43.3415 3.43069C42.8397 3.43069 42.4509 3.60031 42.1753 3.93957C41.9067 4.27882 41.7724 4.76296 41.7724 5.39199C41.7724 6.02102 41.9067 6.5087 42.1753 6.85502C42.4509 7.19427 42.8397 7.3639 43.3415 7.3639ZM50.7432 2.99602C50.821 2.82639 50.9447 2.74158 51.1143 2.74158C51.2203 2.74158 51.3157 2.77692 51.4005 2.8476C51.4854 2.91827 51.5278 3.00662 51.5278 3.11264C51.5278 3.17625 51.5136 3.23279 51.4854 3.28226L48.5063 9.70687C48.471 9.78461 48.4179 9.84469 48.3473 9.88709C48.2837 9.9295 48.2165 9.9507 48.1458 9.9507C48.0398 9.9507 47.9444 9.91537 47.8596 9.84469C47.7818 9.78108 47.743 9.69626 47.743 9.59025C47.743 9.53371 47.7571 9.47716 47.7854 9.42062L48.5275 7.81977L46.4284 3.28226C46.4001 3.23279 46.386 3.17978 46.386 3.12324C46.386 3.01722 46.4319 2.92534 46.5238 2.8476C46.6227 2.76985 46.7288 2.73098 46.8418 2.73098C46.9125 2.73098 46.9797 2.75218 47.0433 2.79459C47.1139 2.83699 47.167 2.89707 47.2023 2.97482L48.9728 6.95044L50.7432 2.99602Z" fill="white"/>
<path d="M58.8507 28.9565H56.1884V16.4426H58.8507V28.9565Z" fill="white"/>
<path d="M5.77868 19.0085C5.36706 19.0026 4.95883 19.0875 4.58027 19.2579C4.20171 19.4283 3.86122 19.6804 3.58072 19.9978C2.98221 20.6502 2.68296 21.5525 2.68296 22.6941C2.68296 23.8357 2.98221 24.7598 3.59104 25.423C3.87586 25.7443 4.22128 25.9992 4.60513 26.1714C4.98898 26.3437 5.40278 26.4295 5.81996 26.4233C6.60421 26.4233 7.23367 26.195 7.70835 25.7492C8.14965 25.3438 8.47485 24.8166 8.64739 24.2271L11.0001 25.1295C10.6906 26.1841 10.0921 27.0974 9.20462 27.8584C8.31718 28.6195 7.1924 29 5.81996 29C4.16891 29 2.78615 28.402 1.67169 27.1952C0.55723 25.9884 0 24.488 0 22.6941C0 20.8785 0.546911 19.3781 1.65105 18.193C2.75519 17.008 4.11731 16.41 5.75805 16.41C7.16144 16.41 8.30686 16.7905 9.1943 17.5516C10.0357 18.2483 10.6403 19.2133 10.9176 20.3022L8.51324 21.2264C8.36888 20.6244 8.06037 20.0801 7.6258 19.6608C7.17279 19.2259 6.56396 19.0085 5.77868 19.0085Z" fill="white"/>
<path d="M15.4177 25.3904C15.7144 25.7067 16.0675 25.958 16.4568 26.1299C16.846 26.3017 17.2637 26.3907 17.6858 26.3917C18.1078 26.3927 18.5259 26.3057 18.9159 26.1358C19.3059 25.9658 19.6601 25.7162 19.9581 25.4013C20.5773 24.7381 20.8868 23.8248 20.8868 22.6398C20.8868 21.4764 20.5773 20.5741 19.9581 19.9217C19.3524 19.2946 18.5371 18.9433 17.6879 18.9433C16.8387 18.9433 16.0235 19.2946 15.4177 19.9217C14.7986 20.5741 14.489 21.4764 14.489 22.6398C14.489 23.8031 14.7986 24.7272 15.4177 25.3904ZM17.6879 16.41C19.4112 16.41 20.8353 16.9971 21.9497 18.1713C23.0642 19.3455 23.6317 20.835 23.6317 22.6506C23.6317 24.4663 23.0745 25.9558 21.9497 27.1409C20.8249 28.3259 19.4112 28.913 17.6879 28.913C15.9853 28.913 14.5716 28.3259 13.4468 27.1409C12.322 25.9558 11.7648 24.4554 11.7648 22.6506C11.7648 20.8459 12.322 19.3564 13.4468 18.1713C14.5716 16.9862 15.975 16.41 17.6879 16.41Z" fill="white"/>
<path d="M30.5765 16.4861V19.3455C30.2861 19.2986 29.993 19.2731 29.6993 19.2694C27.6768 19.2694 26.6758 20.3131 26.6758 22.6289V28.913H23.9929V16.4426H26.6036V18.4431C26.8603 17.8134 27.3062 17.2901 27.8729 16.9536C28.4772 16.5843 29.1659 16.3963 29.8644 16.41C30.1037 16.4078 30.3425 16.4334 30.5765 16.4861Z" fill="white"/>
<path d="M34.2397 21.3677H40.2145C40.205 21.0159 40.1278 20.6697 39.9877 20.3501C39.8476 20.0306 39.6474 19.7443 39.3993 19.5086C38.8936 19.0085 38.161 18.7584 37.2116 18.7584C36.3448 18.7584 35.6431 19.0193 35.1169 19.5412C34.5906 20.0631 34.2913 20.6763 34.2397 21.3677ZM40.5344 24.4337L42.98 25.1839C42.6291 26.2602 41.979 27.1517 41.0194 27.8584C40.0597 28.5651 38.8833 28.913 37.4799 28.913C35.7463 28.913 34.281 28.3368 33.0737 27.1952C31.8663 26.0536 31.2575 24.5207 31.2575 22.5963C31.2575 20.7915 31.8457 19.302 33.0221 18.1496C34.1373 17.0162 35.6313 16.3912 37.1807 16.41C39.0484 16.41 40.5034 16.9645 41.556 18.0626C42.6085 19.1607 43.1337 20.6502 43.1337 22.5245C43.1337 23.0246 43.1131 23.3182 43.0615 23.416H34.1665C34.1776 23.8367 34.2735 24.2501 34.4479 24.6287C34.6222 25.0074 34.871 25.3426 35.1777 25.6122C35.8204 26.1919 36.6434 26.5016 37.4892 26.482C39.0484 26.4885 40.07 25.8036 40.5344 24.4337Z" fill="white"/>
<path d="M46.4266 28.9565H43.7023V11H46.4472V18.23C46.7361 17.7299 47.2108 17.3059 47.8712 16.9688C48.5804 16.6163 49.3574 16.4414 50.1414 16.4578C51.8441 16.4578 53.1752 17.0341 54.1349 18.1974C55.0946 19.3607 55.5693 20.8393 55.5693 22.6441C55.5693 24.4815 55.0636 25.9819 54.0627 27.1669C53.0617 28.352 51.7202 28.9282 50.0486 28.9282C48.3769 28.9282 47.1695 28.3085 46.4266 27.0582V28.9565ZM51.8647 25.4013C52.4529 24.7272 52.7418 23.814 52.7418 22.6615C52.7418 21.5091 52.4529 20.6067 51.875 19.9435C51.2972 19.2803 50.5336 18.9541 49.5842 18.9541C48.6658 18.9541 47.9125 19.2803 47.314 19.9435C46.7155 20.6067 46.4266 21.5091 46.4266 22.6615C46.4266 23.814 46.7258 24.7055 47.314 25.3904C47.9022 26.0754 48.6658 26.4124 49.5842 26.4124C50.5232 26.4124 51.2765 26.0754 51.8647 25.4013Z" fill="white"/>
<path d="M71.44 28.9456H59.6969V26.4885L67.1163 18.9215H59.5731V16.4426H71.4194V18.828L63.9071 26.4603H71.44V28.95V28.9456Z" fill="white"/>
<path d="M72.7502 28.4251C72.5721 28.2433 72.4314 28.0253 72.3368 27.7846C72.2423 27.5438 72.1958 27.2854 72.2003 27.0253C72.1957 26.7635 72.2421 26.5035 72.3366 26.2611C72.4312 26.0187 72.5719 25.7988 72.7502 25.615C72.9217 25.4247 73.1297 25.2743 73.3605 25.1735C73.5913 25.0727 73.8398 25.0238 74.0899 25.0299C74.5962 25.0305 75.0816 25.2409 75.4396 25.615C75.7976 25.989 75.999 26.4962 75.9995 27.0253C76.0054 27.2866 75.9586 27.5463 75.8622 27.7875C75.7657 28.0286 75.6217 28.2459 75.4396 28.4251C75.2631 28.6107 75.0526 28.7572 74.8207 28.8559C74.5888 28.9546 74.3403 29.0035 74.0899 28.9997C73.8409 29.0044 73.5936 28.9559 73.3632 28.8571C73.1329 28.7583 72.9242 28.6113 72.7502 28.4251Z" fill="#BFBFBF"/>
<path d="M138.796 20.2887H136.925V26.6829C136.925 26.8026 136.822 26.9052 136.702 26.9052H135.26C135.14 26.9052 135.037 26.8026 135.037 26.6829V20.2887H133.15C133.098 20.2887 133.029 20.2716 132.995 20.2374C132.961 20.2032 132.926 20.1519 132.926 20.0836V18.9552C132.926 18.9039 132.944 18.8355 132.995 18.8013C133.029 18.7671 133.098 18.7329 133.15 18.75H138.796C138.916 18.75 139.019 18.8355 139.019 18.9552V20.0836C139.019 20.2032 138.916 20.2887 138.796 20.2887Z" fill="white"/>
<path d="M144.803 26.8539C144.065 26.9565 143.31 27.0077 142.572 26.9906C141.147 26.9906 139.894 26.6316 139.894 24.6313V20.9897C139.894 18.9894 141.164 18.6474 142.589 18.6474C143.327 18.6303 144.065 18.6816 144.803 18.7842C144.957 18.8013 145.026 18.8697 145.026 19.0065V20.0323C145.026 20.152 144.923 20.2545 144.803 20.2545H142.486C141.971 20.2545 141.782 20.4255 141.782 21.0068V21.9984H144.717C144.837 21.9984 144.94 22.101 144.94 22.2207V23.2636C144.94 23.3832 144.837 23.4858 144.717 23.4858H141.782V24.6484C141.782 25.2126 141.971 25.4007 142.486 25.4007H144.803C144.923 25.4007 145.026 25.5032 145.026 25.6229V26.6487C145.026 26.7684 144.957 26.8368 144.803 26.8539Z" fill="white"/>
<path d="M153.109 26.9052H151.359C151.239 26.9223 151.118 26.8539 151.067 26.7342L149.539 24.3407L148.166 26.6829C148.098 26.8197 148.012 26.9052 147.892 26.9052H146.261C146.227 26.9052 146.176 26.9052 146.141 26.871C146.107 26.8368 146.09 26.8026 146.09 26.7513C146.09 26.7171 146.107 26.7 146.107 26.6829L148.493 22.7165L146.073 18.9552C146.056 18.9381 146.056 18.9039 146.056 18.8868C146.056 18.8013 146.141 18.7329 146.227 18.75H148.029C148.149 18.75 148.235 18.8526 148.304 18.9552L149.711 21.1778L151.084 18.9552C151.136 18.8355 151.239 18.7671 151.359 18.75H152.989C153.075 18.75 153.161 18.8013 153.161 18.8868C153.161 18.9039 153.144 18.9381 153.144 18.9552L150.741 22.7507L153.247 26.6829C153.264 26.7171 153.281 26.7513 153.281 26.7855C153.264 26.8539 153.212 26.9052 153.109 26.9052Z" fill="white"/>
<path d="M130.283 18.7671C130.198 18.7671 130.129 18.8184 130.112 18.9039L128.516 24.8023C128.499 24.922 128.464 24.9732 128.361 24.9732C128.258 24.9732 128.224 24.922 128.207 24.8023L126.611 18.9039C126.594 18.8184 126.525 18.7671 126.439 18.7671H124.86C124.809 18.7671 124.757 18.7842 124.723 18.8355C124.689 18.8697 124.671 18.921 124.689 18.9723C124.689 18.9723 126.645 25.7426 126.662 25.811C126.92 26.6145 127.555 27.0078 128.361 27.0078C129.134 27.0419 129.837 26.5461 130.06 25.811C130.095 25.7255 132 18.9723 132 18.9723C132.017 18.921 132 18.8697 131.965 18.8355C131.931 18.8013 131.879 18.7671 131.828 18.7671H130.283Z" fill="white"/>
<path d="M121.359 13.2791H104.935C104.334 13.2791 103.785 13.6039 103.493 14.0997C103.184 14.6126 103.167 15.2452 103.442 15.7581L105.089 18.8697H102.103C101.725 18.8697 101.365 19.0578 101.159 19.3826C100.953 19.7074 100.953 20.1177 101.125 20.4597L106.411 30.41C106.599 30.769 106.977 30.9913 107.372 30.9913C107.767 30.9913 108.144 30.769 108.333 30.41L109.775 27.7087L111.577 31.111C111.868 31.658 112.452 32 113.07 32C113.687 32 114.271 31.658 114.563 31.111L122.801 15.6726C123.075 15.1597 123.058 14.5442 122.749 14.0655C122.475 13.5697 121.943 13.2791 121.359 13.2791ZM114.014 19.7929L110.41 26.529C110.289 26.7684 110.049 26.9052 109.775 26.9052C109.5 26.9052 109.26 26.7513 109.139 26.529L105.587 19.8613C105.484 19.6561 105.484 19.4168 105.604 19.2116C105.724 19.0065 105.947 18.8868 106.17 18.8868H113.447C113.67 18.8868 113.876 18.9894 113.979 19.1774C114.117 19.3655 114.117 19.6048 114.014 19.7929Z" fill="white"/>
<path d="M102.357 8.05301C102.223 8.05301 102.117 8.01414 102.039 7.93639C101.961 7.85158 101.922 7.74203 101.922 7.60774V0.9499C101.922 0.82268 101.961 0.720197 102.039 0.642452C102.124 0.564706 102.233 0.525833 102.368 0.525833H104.88C105.665 0.525833 106.273 0.716663 106.704 1.09832C107.142 1.47998 107.361 2.02067 107.361 2.72038C107.361 3.42009 107.142 3.9643 106.704 4.35303C106.265 4.74176 105.658 4.93612 104.88 4.93612H102.792V7.60774C102.792 7.74203 102.753 7.85158 102.675 7.93639C102.597 8.01414 102.491 8.05301 102.357 8.05301ZM104.795 4.21521C105.933 4.21521 106.502 3.71693 106.502 2.72038C106.502 1.73796 105.933 1.24675 104.795 1.24675H102.792V4.21521H104.795ZM110.604 8.07421C110.116 8.07421 109.685 7.96466 109.311 7.74556C108.943 7.52646 108.657 7.21548 108.452 6.81261C108.254 6.40268 108.155 5.92914 108.155 5.39199C108.155 4.85484 108.254 4.38484 108.452 3.98197C108.657 3.57204 108.943 3.25753 109.311 3.03843C109.685 2.81932 110.116 2.70977 110.604 2.70977C111.092 2.70977 111.523 2.81932 111.898 3.03843C112.272 3.25753 112.558 3.57204 112.756 3.98197C112.961 4.38484 113.064 4.85484 113.064 5.39199C113.064 5.92914 112.961 6.40268 112.756 6.81261C112.558 7.21548 112.272 7.52646 111.898 7.74556C111.523 7.96466 111.092 8.07421 110.604 8.07421ZM110.604 7.3639C111.113 7.3639 111.502 7.19781 111.77 6.86562C112.046 6.52637 112.184 6.03516 112.184 5.39199C112.184 4.76296 112.046 4.27882 111.77 3.93957C111.495 3.59325 111.106 3.42009 110.604 3.42009C110.102 3.42009 109.714 3.59325 109.438 3.93957C109.162 4.27882 109.024 4.76296 109.024 5.39199C109.024 6.02809 109.159 6.51577 109.427 6.85502C109.703 7.19427 110.095 7.3639 110.604 7.3639ZM121.342 3.00662C121.412 2.83699 121.529 2.75218 121.692 2.75218C121.798 2.75218 121.893 2.78752 121.978 2.8582C122.063 2.92888 122.105 3.01722 122.105 3.12324C122.105 3.17271 122.094 3.22572 122.073 3.28226L120.313 7.73496C120.271 7.82684 120.207 7.90105 120.123 7.95759C120.045 8.00707 119.956 8.0318 119.858 8.0318C119.766 8.0318 119.677 8.00707 119.592 7.95759C119.515 7.90105 119.455 7.82684 119.412 7.73496L117.949 4.01378L116.497 7.73496C116.461 7.82684 116.401 7.90105 116.317 7.95759C116.232 8.00707 116.14 8.0318 116.041 8.0318C115.949 8.0318 115.861 8.00707 115.776 7.95759C115.691 7.90105 115.627 7.82684 115.585 7.73496L113.825 3.29287C113.804 3.23632 113.793 3.18685 113.793 3.14444C113.793 3.03136 113.839 2.93594 113.931 2.8582C114.03 2.78045 114.136 2.74158 114.249 2.74158C114.419 2.74158 114.539 2.82639 114.61 2.99602L116.062 6.90803L117.557 3.02782C117.599 2.93594 117.656 2.86527 117.727 2.81579C117.804 2.76632 117.886 2.74158 117.97 2.74158C118.062 2.74158 118.144 2.76632 118.214 2.81579C118.292 2.86527 118.349 2.93594 118.384 3.02782L119.879 6.89743L121.342 3.00662ZM127.14 6.80201C127.218 6.80201 127.285 6.83382 127.342 6.89743C127.398 6.96104 127.426 7.04232 127.426 7.14127C127.426 7.31796 127.303 7.48052 127.055 7.62894C126.801 7.77737 126.532 7.89045 126.25 7.9682C125.967 8.03887 125.691 8.07421 125.423 8.07421C124.624 8.07421 123.992 7.83744 123.525 7.3639C123.066 6.89036 122.836 6.23659 122.836 5.40259C122.836 4.87251 122.938 4.40604 123.143 4.00318C123.348 3.59325 123.635 3.2752 124.002 3.04903C124.377 2.82286 124.801 2.70977 125.274 2.70977C125.946 2.70977 126.479 2.92888 126.875 3.36708C127.271 3.80528 127.469 4.39897 127.469 5.14815C127.469 5.28951 127.441 5.39199 127.384 5.4556C127.327 5.51921 127.236 5.55102 127.108 5.55102H123.695C123.758 6.76667 124.334 7.3745 125.423 7.3745C125.698 7.3745 125.935 7.33916 126.133 7.26849C126.331 7.19074 126.543 7.08826 126.769 6.96104C126.953 6.85502 127.077 6.80201 127.14 6.80201ZM125.285 3.37768C124.833 3.37768 124.469 3.51903 124.193 3.80174C123.924 4.08446 123.765 4.48378 123.716 4.99973H126.716C126.702 4.47672 126.571 4.07739 126.324 3.80174C126.076 3.51903 125.73 3.37768 125.285 3.37768ZM131.289 2.73098C131.586 2.70977 131.734 2.82993 131.734 3.09143C131.734 3.20452 131.703 3.2964 131.639 3.36708C131.575 3.43069 131.466 3.46956 131.31 3.4837L130.992 3.5155C130.519 3.55791 130.165 3.72753 129.932 4.02438C129.706 4.31416 129.593 4.65694 129.593 5.05274V7.62894C129.593 7.7703 129.554 7.87631 129.476 7.94699C129.398 8.01767 129.296 8.05301 129.169 8.05301C129.042 8.05301 128.936 8.01767 128.851 7.94699C128.773 7.86925 128.734 7.76323 128.734 7.62894V3.15504C128.734 3.02076 128.776 2.91827 128.861 2.8476C128.946 2.76985 129.049 2.73098 129.169 2.73098C129.282 2.73098 129.377 2.76985 129.455 2.8476C129.533 2.91827 129.572 3.01722 129.572 3.14444V3.73813C129.72 3.42715 129.929 3.19038 130.197 3.02782C130.473 2.86527 130.787 2.76985 131.141 2.74158L131.289 2.73098ZM136.365 6.80201C136.443 6.80201 136.51 6.83382 136.566 6.89743C136.623 6.96104 136.651 7.04232 136.651 7.14127C136.651 7.31796 136.527 7.48052 136.28 7.62894C136.026 7.77737 135.757 7.89045 135.474 7.9682C135.192 8.03887 134.916 8.07421 134.647 8.07421C133.849 8.07421 133.216 7.83744 132.75 7.3639C132.29 6.89036 132.061 6.23659 132.061 5.40259C132.061 4.87251 132.163 4.40604 132.368 4.00318C132.573 3.59325 132.859 3.2752 133.227 3.04903C133.601 2.82286 134.025 2.70977 134.499 2.70977C135.17 2.70977 135.704 2.92888 136.1 3.36708C136.496 3.80528 136.694 4.39897 136.694 5.14815C136.694 5.28951 136.665 5.39199 136.609 5.4556C136.552 5.51921 136.46 5.55102 136.333 5.55102H132.919C132.983 6.76667 133.559 7.3745 134.647 7.3745C134.923 7.3745 135.16 7.33916 135.358 7.26849C135.556 7.19074 135.768 7.08826 135.994 6.96104C136.178 6.85502 136.301 6.80201 136.365 6.80201ZM134.51 3.37768C134.057 3.37768 133.693 3.51903 133.418 3.80174C133.149 4.08446 132.99 4.48378 132.941 4.99973H135.941C135.927 4.47672 135.796 4.07739 135.549 3.80174C135.301 3.51903 134.955 3.37768 134.51 3.37768ZM142.104 0.472825C142.238 0.472825 142.344 0.511698 142.422 0.589443C142.5 0.667189 142.539 0.766138 142.539 0.88629V7.62894C142.539 7.75616 142.5 7.85864 142.422 7.93639C142.344 8.01414 142.238 8.05301 142.104 8.05301C141.97 8.05301 141.864 8.01414 141.786 7.93639C141.715 7.85864 141.68 7.75616 141.68 7.62894V7.05645C141.524 7.38157 141.295 7.63248 140.991 7.80917C140.694 7.98586 140.344 8.07421 139.941 8.07421C139.489 8.07421 139.09 7.96113 138.743 7.73496C138.397 7.50879 138.128 7.19427 137.938 6.79141C137.747 6.38148 137.651 5.90794 137.651 5.37079C137.651 4.84071 137.747 4.37423 137.938 3.97137C138.128 3.56851 138.397 3.25753 138.743 3.03843C139.09 2.81932 139.489 2.70977 139.941 2.70977C140.344 2.70977 140.694 2.79812 140.991 2.97482C141.295 3.15151 141.524 3.40242 141.68 3.72753V0.88629C141.68 0.75907 141.715 0.660121 141.786 0.589443C141.864 0.511698 141.97 0.472825 142.104 0.472825ZM140.111 7.3639C140.613 7.3639 140.998 7.19427 141.266 6.85502C141.542 6.5087 141.68 6.02102 141.68 5.39199C141.68 4.76296 141.542 4.27882 141.266 3.93957C140.998 3.60031 140.613 3.43069 140.111 3.43069C139.609 3.43069 139.217 3.60031 138.934 3.93957C138.658 4.27882 138.521 4.75589 138.521 5.37079C138.521 5.99982 138.658 6.49103 138.934 6.84442C139.217 7.19074 139.609 7.3639 140.111 7.3639ZM149.46 2.70977C149.912 2.70977 150.312 2.81932 150.658 3.03843C151.004 3.25753 151.273 3.56851 151.464 3.97137C151.654 4.37423 151.75 4.84071 151.75 5.37079C151.75 5.90794 151.654 6.38148 151.464 6.79141C151.273 7.19427 151.004 7.50879 150.658 7.73496C150.312 7.96113 149.912 8.07421 149.46 8.07421C149.057 8.07421 148.704 7.98586 148.4 7.80917C148.103 7.63248 147.877 7.38157 147.721 7.05645V7.62894C147.721 7.75616 147.682 7.85864 147.605 7.93639C147.534 8.01414 147.431 8.05301 147.297 8.05301C147.163 8.05301 147.057 8.01414 146.979 7.93639C146.901 7.85864 146.863 7.75616 146.863 7.62894V0.88629C146.863 0.766138 146.901 0.667189 146.979 0.589443C147.057 0.511698 147.163 0.472825 147.297 0.472825C147.431 0.472825 147.534 0.511698 147.605 0.589443C147.682 0.660121 147.721 0.75907 147.721 0.88629V3.72753C147.877 3.40242 148.103 3.15151 148.4 2.97482C148.704 2.79812 149.057 2.70977 149.46 2.70977ZM149.29 7.3639C149.792 7.3639 150.181 7.19074 150.456 6.84442C150.732 6.49103 150.87 5.99982 150.87 5.37079C150.87 4.75589 150.732 4.27882 150.456 3.93957C150.181 3.60031 149.792 3.43069 149.29 3.43069C148.788 3.43069 148.4 3.60031 148.124 3.93957C147.856 4.27882 147.721 4.76296 147.721 5.39199C147.721 6.02102 147.856 6.5087 148.124 6.85502C148.4 7.19427 148.788 7.3639 149.29 7.3639ZM156.692 2.99602C156.77 2.82639 156.893 2.74158 157.063 2.74158C157.169 2.74158 157.265 2.77692 157.349 2.8476C157.434 2.91827 157.477 3.00662 157.477 3.11264C157.477 3.17625 157.462 3.23279 157.434 3.28226L154.455 9.70687C154.42 9.78461 154.367 9.84469 154.296 9.88709C154.232 9.9295 154.165 9.9507 154.095 9.9507C153.989 9.9507 153.893 9.91537 153.808 9.84469C153.731 9.78108 153.692 9.69626 153.692 9.59025C153.692 9.53371 153.706 9.47716 153.734 9.42062L154.476 7.81977L152.377 3.28226C152.349 3.23279 152.335 3.17978 152.335 3.12324C152.335 3.01722 152.381 2.92534 152.473 2.8476C152.572 2.76985 152.678 2.73098 152.791 2.73098C152.861 2.73098 152.928 2.75218 152.992 2.79459C153.063 2.83699 153.116 2.89707 153.151 2.97482L154.922 6.95044L156.692 2.99602Z" fill="white"/>
</svg>
